<svg width="23" height="22" viewBox="0 0 23 22" fill="none" xmlns="http://www.w3.org/2000/svg">
<path fill-rule="evenodd" clip-rule="evenodd" d="M4.3999 9.81998C4.3999 6.78974 6.85639 4.33325 9.88663 4.33325C12.9169 4.33325 15.3734 6.78974 15.3734 9.81998C15.3734 12.8502 12.9169 15.3067 9.88663 15.3067C6.85639 15.3067 4.3999 12.8502 4.3999 9.81998ZM0.899902 9.81998C0.899902 4.85675 4.9234 0.833252 9.88663 0.833252C14.8499 0.833252 18.8734 4.85675 18.8734 9.81998C18.8734 11.1704 18.5755 12.4513 18.0419 13.6004C17.7159 14.3024 17.7875 15.1533 18.3348 15.7006L21.7702 19.136C22.3872 19.753 22.3872 20.7535 21.7702 21.3705C21.1531 21.9876 20.1527 21.9876 19.5356 21.3705L16.2116 18.0465C15.6412 17.4761 14.7457 17.4241 14.0301 17.7966C12.7903 18.4419 11.3811 18.8067 9.88663 18.8067C4.9234 18.8067 0.899902 14.7832 0.899902 9.81998Z" fill="#CCCCCC"/>
</svg>
